<?xml version="1.0" encoding="utf-8"?>
<!-- Generator: Adobe Illustrator 19.2.1, SVG Export Plug-In . SVG Version: 6.00 Build 0)  -->
<svg version="1.1" id="Capa_1" xmlns="http://www.w3.org/2000/svg" xmlns:xlink="http://www.w3.org/1999/xlink" x="0px" y="0px"
	 viewBox="0 0 21 21" style="enable-background:new 0 0 21 21;" xml:space="preserve">
<style type="text/css">
	.st0{fill:#37A2DB;}
</style>
<path class="st0" d="M17.2,5.2c-0.5-0.5-1.3-0.5-1.7,0l-4.7,4.7c-1.2,1.2-3.1,1.2-4.4,0L5.9,9.4c-0.5-0.5-1.3-0.5-1.7,0
	c-0.5,0.5-0.5,1.3,0,1.7l3.7,3.7L8,14.7c0.5,0.4,1.2,0.4,1.6-0.1l7.7-7.7C17.7,6.4,17.7,5.7,17.2,5.2z"/>
<path class="st0" d="M16.6,0.3H4.4c-2.3,0-4.1,1.8-4.1,4.1v12.2c0,2.3,1.8,4.1,4.1,4.1h12.1c2.3,0,4.1-1.8,4.1-4.1V4.4
	C20.6,2.2,18.8,0.3,16.6,0.3z M18.4,15.7c0,1.5-1.2,2.7-2.7,2.7H5.3c-1.5,0-2.7-1.2-2.7-2.7V5.3c0-1.5,1.2-2.7,2.7-2.7h10.4
	c1.5,0,2.7,1.2,2.7,2.7V15.7z"/>
</svg>
