<?xml version="1.0" encoding="utf-8"?>
<!-- Generator: Adobe Illustrator 19.2.1, SVG Export Plug-In . SVG Version: 6.00 Build 0)  -->
<svg version="1.1" id="Capa_1" xmlns="http://www.w3.org/2000/svg" xmlns:xlink="http://www.w3.org/1999/xlink" x="0px" y="0px"
	 viewBox="0 0 21 21" style="enable-background:new 0 0 21 21;" xml:space="preserve">
<style type="text/css">
	.st0{fill:#BCBFC6;}
</style>
<path class="st0" d="M16.6,0.3H4.4c-2.3,0-4.1,1.8-4.1,4.1v12.2c0,2.3,1.8,4.1,4.1,4.1h12.1c2.3,0,4.1-1.8,4.1-4.1V4.4
	C20.6,2.2,18.8,0.3,16.6,0.3z M18.4,15.7c0,1.5-1.2,2.7-2.7,2.7H5.3c-1.5,0-2.7-1.2-2.7-2.7V5.3c0-1.5,1.2-2.7,2.7-2.7h10.4
	c1.5,0,2.7,1.2,2.7,2.7V15.7z"/>
</svg>
