<?xml version="1.0" encoding="utf-8"?>
<!-- Generator: Adobe Illustrator 19.2.1, SVG Export Plug-In . SVG Version: 6.00 Build 0)  -->
<svg version="1.1" id="Capa_1" xmlns="http://www.w3.org/2000/svg" xmlns:xlink="http://www.w3.org/1999/xlink" x="0px" y="0px"
	 viewBox="0 0 71.2 24" style="enable-background:new 0 0 71.2 24;" xml:space="preserve">
<style type="text/css">
	.st0{opacity:0.78;}
	.st1{fill:#FFFFFF;}
</style>
<g class="st0">
	<g>
		<path class="st1" d="M12.2,17.1l2.5-6.7l-1.9-5.2l-3.1,8.5H8.1c-1.7,0-2.7-0.4-2.7-2.6c0-2.1,1-2.6,2.7-2.6h1.6l1.2-3.3H7.8
			c-3.7,0-6,1.9-6,5.9c0,4,2.3,5.9,6.1,5.9h0.6L12.2,17.1L12.2,17.1z"/>
	</g>
	<polygon class="st1" points="22.3,17.1 22.3,13.3 26.4,13.3 26.4,10.2 22.3,10.2 22.3,8.6 27.2,8.6 28.4,5.3 18.8,5.3 18.8,11.1 
		16.7,5.3 12.8,5.3 17.2,17.1 	"/>
	<g>
		<g>
			<path class="st1" d="M29.7,12.9h-1v-2.6h1c0.5,0,0.8,0.3,0.8,0.7c0,0.3-0.2,0.5-0.4,0.6c0.2,0.1,0.4,0.3,0.4,0.6
				C30.4,12.6,30.1,12.9,29.7,12.9z M29.6,10.5h-0.7v0.9h0.7c0.3,0,0.5-0.1,0.5-0.5C30.1,10.6,29.9,10.5,29.6,10.5z M29.6,11.7h-0.7
				v1h0.7c0.3,0,0.5-0.2,0.5-0.5C30.2,11.8,30,11.7,29.6,11.7z"/>
			<path class="st1" d="M32.6,12.9l-0.2-0.6h-1.2l-0.2,0.6h-0.3l1-2.6H32l1,2.6H32.6z M31.9,10.6L31.4,12h1L31.9,10.6z"/>
			<path class="st1" d="M35,12.9l-1.4-2.1v2.1h-0.3v-2.6h0.3l1.4,2.1v-2.1h0.3v2.6L35,12.9L35,12.9z"/>
			<path class="st1" d="M36.9,12.9c-0.3,0-0.5-0.1-0.7-0.3C36,12.4,36,12.1,36,11.6c0-0.6,0-0.8,0.2-1.1c0.2-0.2,0.4-0.3,0.7-0.3
				c0.5,0,0.8,0.3,0.9,0.8h-0.3c-0.1-0.3-0.3-0.5-0.6-0.5c-0.2,0-0.3,0.1-0.4,0.2c-0.2,0.2-0.2,0.4-0.2,0.9c0,0.6,0,0.7,0.2,0.9
				c0.1,0.1,0.3,0.2,0.4,0.2c0.3,0,0.6-0.2,0.6-0.5h0.3C37.7,12.6,37.3,12.9,36.9,12.9z"/>
			<path class="st1" d="M39.8,12.6c-0.2,0.2-0.4,0.3-0.7,0.3c-0.3,0-0.5-0.1-0.7-0.3c-0.2-0.2-0.2-0.5-0.2-1.1c0-0.6,0-0.8,0.2-1.1
				c0.2-0.2,0.4-0.3,0.7-0.3c0.3,0,0.5,0.1,0.7,0.3c0.2,0.2,0.2,0.5,0.2,1.1C40.1,12.1,40.1,12.4,39.8,12.6z M39.7,10.7
				c-0.1-0.1-0.3-0.2-0.4-0.2c-0.2,0-0.3,0.1-0.4,0.2c-0.2,0.2-0.2,0.4-0.2,0.9c0,0.6,0,0.7,0.2,0.9c0.1,0.1,0.3,0.2,0.4,0.2
				c0.2,0,0.3-0.1,0.4-0.2c0.2-0.2,0.2-0.4,0.2-0.9C39.8,11,39.8,10.8,39.7,10.7z"/>
			<path class="st1" d="M43.2,12.6c-0.2,0.2-0.4,0.2-0.7,0.2h-0.9v-2.6h0.9c0.3,0,0.5,0.1,0.7,0.2c0.3,0.3,0.3,0.7,0.3,1
				C43.5,11.9,43.5,12.3,43.2,12.6z M43,10.7c-0.1-0.1-0.3-0.2-0.5-0.2H42v2.1h0.6c0.2,0,0.4,0,0.5-0.2c0.2-0.2,0.2-0.6,0.2-0.9
				C43.2,11.2,43.2,10.9,43,10.7z"/>
			<path class="st1" d="M44.1,12.9v-2.6h1.6v0.2h-1.4v0.9h1.2v0.2h-1.2v1h1.4v0.2L44.1,12.9L44.1,12.9z"/>
			<path class="st1" d="M48.8,12.6c-0.2,0.2-0.4,0.2-0.7,0.2h-0.9v-2.6h0.9c0.3,0,0.5,0.1,0.7,0.2c0.3,0.3,0.3,0.7,0.3,1
				C49.1,11.9,49.1,12.3,48.8,12.6z M48.6,10.7c-0.1-0.1-0.3-0.2-0.5-0.2h-0.6v2.1h0.6c0.2,0,0.4,0,0.5-0.2c0.2-0.2,0.2-0.6,0.2-0.9
				C48.8,11.2,48.8,10.9,48.6,10.7z"/>
			<path class="st1" d="M49.7,12.9v-2.6h1.6v0.2H50v0.9h1.2v0.2H50v1h1.4v0.2L49.7,12.9L49.7,12.9z"/>
			<path class="st1" d="M52.6,12.9c-0.4,0-0.6-0.1-0.9-0.4l0.2-0.2c0.2,0.2,0.4,0.3,0.7,0.3c0.4,0,0.6-0.2,0.6-0.5
				c0-0.1,0-0.2-0.1-0.3c-0.1-0.1-0.2-0.1-0.3-0.1l-0.3,0c-0.2,0-0.4-0.1-0.5-0.2c-0.1-0.1-0.2-0.3-0.2-0.5c0-0.4,0.3-0.7,0.8-0.7
				c0.3,0,0.6,0.1,0.8,0.3l-0.2,0.2c-0.2-0.2-0.3-0.2-0.6-0.2c-0.4,0-0.6,0.2-0.6,0.5c0,0.1,0,0.2,0.1,0.3c0.1,0.1,0.2,0.1,0.4,0.1
				l0.3,0c0.2,0,0.4,0.1,0.5,0.2c0.1,0.1,0.2,0.3,0.2,0.5C53.5,12.6,53.2,12.9,52.6,12.9z"/>
			<path class="st1" d="M55.6,12.9l-0.2-0.6h-1.2l-0.2,0.6h-0.3l1-2.6h0.2l1,2.6H55.6z M54.8,10.6L54.3,12h1L54.8,10.6z"/>
			<path class="st1" d="M57.8,12.9l-0.6-1.2h-0.6v1.2h-0.3v-2.6h1c0.5,0,0.8,0.3,0.8,0.7c0,0.4-0.2,0.6-0.6,0.7l0.6,1.2L57.8,12.9
				L57.8,12.9L57.8,12.9z M57.3,10.5h-0.7v1h0.7c0.3,0,0.5-0.2,0.5-0.5C57.8,10.6,57.6,10.5,57.3,10.5z"/>
			<path class="st1" d="M60.2,12.9l-0.6-1.2H59v1.2h-0.3v-2.6h1c0.5,0,0.8,0.3,0.8,0.7c0,0.4-0.2,0.6-0.6,0.7l0.6,1.2L60.2,12.9
				L60.2,12.9L60.2,12.9z M59.7,10.5H59v1h0.7c0.3,0,0.5-0.2,0.5-0.5C60.3,10.6,60,10.5,59.7,10.5z"/>
			<path class="st1" d="M62.6,12.6c-0.2,0.2-0.4,0.3-0.7,0.3c-0.3,0-0.5-0.1-0.7-0.3c-0.2-0.2-0.2-0.5-0.2-1.1c0-0.6,0-0.8,0.2-1.1
				c0.2-0.2,0.4-0.3,0.7-0.3c0.3,0,0.5,0.1,0.7,0.3c0.2,0.2,0.2,0.5,0.2,1.1C62.9,12.1,62.9,12.4,62.6,12.6z M62.4,10.7
				c-0.1-0.1-0.3-0.2-0.4-0.2c-0.2,0-0.3,0.1-0.4,0.2c-0.2,0.2-0.2,0.4-0.2,0.9c0,0.6,0,0.7,0.2,0.9c0.1,0.1,0.3,0.2,0.4,0.2
				c0.2,0,0.3-0.1,0.4-0.2c0.2-0.2,0.2-0.4,0.2-0.9C62.6,11,62.6,10.8,62.4,10.7z"/>
			<path class="st1" d="M63.5,12.9v-2.6h0.3v2.4h1.3v0.2L63.5,12.9L63.5,12.9z"/>
			<path class="st1" d="M65.6,12.9v-2.6h0.3v2.4h1.3v0.2L65.6,12.9L65.6,12.9z"/>
			<path class="st1" d="M69.1,12.6c-0.2,0.2-0.4,0.3-0.7,0.3c-0.3,0-0.5-0.1-0.7-0.3c-0.2-0.2-0.2-0.5-0.2-1.1c0-0.6,0-0.8,0.2-1.1
				c0.2-0.2,0.4-0.3,0.7-0.3c0.3,0,0.5,0.1,0.7,0.3c0.2,0.2,0.2,0.5,0.2,1.1C69.3,12.1,69.3,12.4,69.1,12.6z M68.9,10.7
				c-0.1-0.1-0.3-0.2-0.4-0.2c-0.2,0-0.3,0.1-0.4,0.2c-0.2,0.2-0.2,0.4-0.2,0.9c0,0.6,0,0.7,0.2,0.9c0.1,0.1,0.3,0.2,0.4,0.2
				c0.2,0,0.3-0.1,0.4-0.2c0.2-0.2,0.2-0.4,0.2-0.9C69.1,11,69,10.8,68.9,10.7z"/>
			<path class="st1" d="M30.2,17c-0.2,0.2-0.4,0.2-0.7,0.2h-0.9v-2.6h0.9c0.3,0,0.5,0.1,0.7,0.2c0.3,0.3,0.3,0.7,0.3,1
				C30.5,16.3,30.5,16.8,30.2,17z M30,15.1c-0.1-0.1-0.3-0.2-0.5-0.2h-0.6V17h0.6c0.2,0,0.4,0,0.5-0.2c0.2-0.2,0.2-0.6,0.2-0.9
				C30.2,15.6,30.2,15.3,30,15.1z"/>
			<path class="st1" d="M31.1,17.3v-2.6h1.6v0.2h-1.4v0.9h1.2v0.2h-1.2v1h1.4v0.2L31.1,17.3L31.1,17.3z"/>
			<path class="st1" d="M35.6,17.3l-0.1-0.4h-0.8l-0.1,0.4h-0.7l1-2.6h0.5l1,2.6H35.6z M35.1,15.6l-0.2,0.7h0.5L35.1,15.6z"/>
			<path class="st1" d="M38.3,17.3V16l-0.4,0.6h-0.4L37.1,16v1.3h-0.6v-2.6h0.6l0.6,1.2l0.6-1.2H39v2.6L38.3,17.3L38.3,17.3z"/>
			<path class="st1" d="M39.5,17.3v-2.6h1.8v0.6h-1.1v0.4h1v0.6h-1v0.5h1.1v0.6L39.5,17.3L39.5,17.3z M40.5,14.4h-0.4l0.2-0.7H41
				L40.5,14.4z"/>
			<path class="st1" d="M43,17.3l-0.5-1h-0.2v1h-0.6v-2.6h1c0.6,0,0.9,0.4,0.9,0.8c0,0.4-0.2,0.6-0.4,0.7l0.6,1.1L43,17.3L43,17.3z
				 M42.7,15.2h-0.4v0.5h0.4c0.2,0,0.3-0.1,0.3-0.3C43,15.4,42.9,15.2,42.7,15.2z"/>
			<path class="st1" d="M44.1,17.3v-2.6h0.6v2.6L44.1,17.3L44.1,17.3z"/>
			<path class="st1" d="M46.2,17.3c-0.3,0-0.5-0.1-0.7-0.3c-0.3-0.3-0.3-0.6-0.3-1c0-0.4,0-0.8,0.3-1c0.2-0.2,0.4-0.3,0.7-0.3
				c0.5,0,0.9,0.3,1,0.8h-0.6c0-0.2-0.1-0.3-0.3-0.3c-0.1,0-0.2,0-0.2,0.1c-0.1,0.1-0.1,0.2-0.1,0.6c0,0.5,0,0.6,0.1,0.6
				c0,0.1,0.1,0.1,0.2,0.1c0.2,0,0.3-0.1,0.3-0.3h0.6C47.1,17,46.7,17.3,46.2,17.3z"/>
			<path class="st1" d="M48.9,17.3l-0.1-0.4H48l-0.1,0.4h-0.7l1-2.6h0.5l1,2.6H48.9z M48.4,15.6l-0.2,0.7h0.5L48.4,15.6z"/>
			<path class="st1" d="M50.7,17.3v-2.6h0.6v2h1.1v0.6L50.7,17.3L50.7,17.3z"/>
			<path class="st1" d="M54.3,17.3l-0.1-0.4h-0.8l-0.1,0.4h-0.7l1-2.6H54l1,2.6H54.3z M53.8,15.6l-0.2,0.7H54L53.8,15.6z"/>
			<path class="st1" d="M56.1,15.2v2h-0.6v-2h-0.6v-0.6h1.9v0.6H56.1z"/>
			<path class="st1" d="M57.1,17.3v-2.6h0.6v2.6L57.1,17.3L57.1,17.3z"/>
			<path class="st1" d="M59.8,17.3L59,16v1.3h-0.6v-2.6h0.6l0.8,1.3v-1.3h0.6v2.6L59.8,17.3L59.8,17.3z"/>
			<path class="st1" d="M62.3,17.3l-0.1-0.4h-0.8l-0.1,0.4h-0.7l1-2.6h0.5l1,2.6H62.3z M61.8,15.6l-0.2,0.7h0.5L61.8,15.6z"/>
		</g>
	</g>
</g>
</svg>
