<?xml version="1.0" encoding="utf-8"?>
<!-- Generator: Adobe Illustrator 19.2.1, SVG Export Plug-In . SVG Version: 6.00 Build 0)  -->
<svg version="1.1" id="Capa_1" xmlns="http://www.w3.org/2000/svg" xmlns:xlink="http://www.w3.org/1999/xlink" x="0px" y="0px"
	 viewBox="0 0 71.2 24" style="enable-background:new 0 0 71.2 24;" xml:space="preserve">
<style type="text/css">
	.st0{opacity:0.78;}
	.st1{fill:#FFFFFF;}
</style>
<g class="st0">
	<path class="st1" d="M44.3,21.4c0.3-0.8,0.6-1.6,0.9-2.4c0.1-0.3,0.2-0.5,0.6-0.5c0.4,0,0.6,0.1,0.6,0.5c0,1,0,2,0,3.1
		c0,0.2,0,0.4-0.3,0.5c-0.4,0-0.4-0.2-0.4-0.5c0-0.5,0-1,0-1.4c0-0.2,0.1-0.4-0.2-0.5c-0.4,0.4-0.4,1-0.6,1.4
		c-0.1,0.2-0.2,0.4-0.3,0.7c-0.1,0.2-0.2,0.4-0.4,0.4c-0.2,0-0.4-0.1-0.4-0.3c-0.2-0.6-0.5-1.2-0.7-1.8c-0.1-0.1-0.1-0.3-0.3-0.7
		c-0.2,0.7-0.1,1.2-0.2,1.6c-0.1,0.4,0.3,1.1-0.3,1.1c-0.6,0-0.3-0.8-0.3-1.2c-0.1-0.7,0-1.4,0-2.1c0-0.3-0.1-0.6,0.3-0.6
		c0.4-0.1,0.7,0,0.9,0.5c0.2,0.7,0.5,1.3,0.8,2C44,21.1,44,21.3,44.3,21.4z"/>
	<path class="st1" d="M26.8,4.5c0.3-0.8,0.6-1.6,0.9-2.4c0.1-0.3,0.3-0.6,0.7-0.6c0.3,0,0.5,0.1,0.5,0.4c0,1.1,0,2.1,0,3.2
		c0,0.2-0.1,0.3-0.3,0.3c-0.2,0-0.3-0.1-0.3-0.3c0-0.8,0-1.5-0.2-2.4c-0.3,0.7-0.6,1.4-0.8,2.1c-0.1,0.3-0.2,0.6-0.6,0.6
		c-0.3,0-0.4-0.3-0.5-0.6c-0.3-0.7-0.5-1.4-1-2.1c0,0.3,0,0.7,0,1c0,0.3,0,0.6,0,0.9c0,0.3,0.1,0.7-0.3,0.7c-0.4,0-0.3-0.5-0.3-0.7
		c0-0.8,0-1.6,0-2.4c0-0.3-0.1-0.7,0.4-0.8c0.5-0.1,0.7,0.2,0.8,0.6c0.2,0.6,0.4,1.2,0.7,1.8C26.5,4.1,26.5,4.3,26.8,4.5z"/>
	<path class="st1" d="M54,21.1c0.2-0.3,0.1-0.7,0.1-1c0-0.4,0-0.8,0-1.2c0-0.2,0.1-0.3,0.3-0.3c0.2,0,0.3,0.1,0.3,0.3
		c0,0.1,0,0.1,0,0.2c0,1,0,2,0,3c0,0.2,0.1,0.5-0.3,0.6c-0.3,0-0.5,0-0.7-0.3c-0.2-0.4-0.5-0.8-0.7-1.2c-0.2-0.4-0.4-0.7-0.7-1.3
		c-0.3,0.6-0.1,1.1-0.2,1.6c0,0.3,0,0.5,0,0.8c0,0.2,0,0.4-0.3,0.4c-0.3,0-0.3-0.2-0.3-0.4c0-1,0-2,0-3.1c0-0.2,0-0.5,0.2-0.5
		c0.3,0,0.6-0.1,0.7,0.2c0.3,0.5,0.5,1,0.8,1.5C53.6,20.5,53.7,20.9,54,21.1z"/>
	<path class="st1" d="M33.6,21.2c0-0.6,0-1.1,0-1.7c0-0.2,0-0.4,0-0.6c0-0.2,0.1-0.3,0.3-0.3c0.2,0,0.3,0.1,0.3,0.3
		c0,0.4,0,0.8,0,1.2c0,0.6,0,1.3,0,1.9c0,0.2,0,0.4-0.2,0.5c-0.3,0.1-0.5,0-0.7-0.3c-0.3-0.6-0.7-1.3-1-1.9
		c-0.1-0.2-0.2-0.4-0.5-0.6c-0.1,0.5-0.1,1.1-0.1,1.6c0,0.2,0,0.4,0,0.6c0,0.2,0,0.5-0.3,0.5c-0.3,0-0.3-0.3-0.3-0.5
		c0-1,0-1.9,0-2.9c0-0.2-0.1-0.5,0.2-0.6c0.4-0.1,0.6,0,0.8,0.4c0.3,0.6,0.6,1.2,1,1.8C33.2,20.9,33.3,21.1,33.6,21.2z"/>
	<path class="st1" d="M62,14.3c0,0.6,0,1.3,0,1.9c0,0.3,0.1,0.6-0.3,0.6c-0.4,0-0.3-0.4-0.3-0.6c0-0.9,0-1.8,0-2.8
		c0-0.3,0-0.6,0.4-0.6c0.3,0,0.5,0.1,0.7,0.4c0.3,0.6,0.7,1.3,1,1.9c0.1,0.2,0.1,0.4,0.5,0.4c0-0.7,0-1.4,0-2.1c0-0.2,0-0.5,0.3-0.5
		c0.3,0,0.3,0.3,0.3,0.5c0,1,0,2,0,3c0,0.2,0,0.4-0.2,0.5c-0.3,0.1-0.5,0.1-0.7-0.2c-0.3-0.4-0.5-0.9-0.7-1.3
		c-0.2-0.3-0.4-0.7-0.6-1C62.1,14.3,62,14.3,62,14.3z"/>
	<path class="st1" d="M59.3,11.8c0,0.4-0.4,0.5-0.5,0.9c1.6,0.4,2.2,1.4,1.8,2.9c-0.4,1.4-2.2,1.8-3.2,0.9c-0.8-0.8-0.7-2.6,0.2-3.3
		c0.5-0.3,0.9-0.5,1.1-1.1C58.8,11.8,59,11.7,59.3,11.8z M60,14.9c0-0.9-0.5-1.5-1.3-1.5c-0.7,0-1.2,0.6-1.2,1.5
		c0,0.9,0.5,1.5,1.3,1.5C59.6,16.3,60,15.7,60,14.9z"/>
	<path class="st1" d="M31.7,2.6c0,0.9,0,1.6,0,2.3c0,0.2,0,0.5-0.4,0.5c-0.3,0-0.3-0.3-0.3-0.5c0-1,0-1.9,0-2.9c0-0.2,0-0.5,0.3-0.6
		c0.3,0,0.5,0,0.7,0.3c0.2,0.3,0.3,0.7,0.5,1c0.2,0.4,0.5,0.9,0.7,1.3c0.1,0,0.1,0,0.2,0c0-0.7,0-1.3,0-2c0-0.2,0-0.5,0.3-0.5
		c0.3,0,0.4,0.3,0.4,0.5c0,1,0,1.9,0,2.9c0,0.2,0,0.5-0.3,0.5c-0.3,0-0.5,0-0.7-0.3C33,4.6,32.7,4,32.4,3.5
		C32.2,3.2,32.2,2.9,31.7,2.6z"/>
	<path class="st1" d="M62.3,20.5c0,1.3-0.7,2.1-1.9,2.1c-1.2,0-2-0.8-2-2.1c0-1.2,0.8-2,2-2C61.5,18.5,62.3,19.3,62.3,20.5z
		 M61.6,20.5c0-0.9-0.5-1.5-1.3-1.5c-0.8,0-1.2,0.7-1.2,1.6c0,0.9,0.5,1.4,1.3,1.4C61.1,22,61.6,21.4,61.6,20.5z"/>
	<path class="st1" d="M32.7,14.2c0,0.7,0,1.5,0,2.2c0,0.2,0,0.4-0.3,0.4c-0.3,0-0.3-0.2-0.3-0.4c0-1.1,0-2.1,0-3.2
		c0-0.2,0-0.4,0.3-0.5c0.2,0,0.4,0,0.6,0.2c0.2,0.2,0.3,0.5,0.4,0.7c0.3,0.6,0.7,1.2,1.2,1.8c0-0.7,0-1.5,0-2.2c0-0.2,0-0.4,0.3-0.5
		c0.4,0,0.3,0.2,0.4,0.5c0,1,0,2,0,3c0,0.2,0.1,0.5-0.3,0.6c-0.3,0.1-0.5,0-0.7-0.3c-0.2-0.5-0.5-0.9-0.7-1.3
		c-0.2-0.4-0.4-0.7-0.6-1C32.8,14.2,32.8,14.2,32.7,14.2z"/>
	<path class="st1" d="M53.6,3.4c0,1.3-0.8,2.1-1.9,2.1c-1.1,0-1.9-0.8-1.9-2c0-1.2,0.8-2.2,1.9-2.2C52.7,1.4,53.5,2,53.6,3.4z
		 M53,3.5c0-0.8-0.6-1.6-1.3-1.6c-0.7,0-1.3,0.6-1.3,1.4c0,0.8,0.5,1.6,1.2,1.6C52.3,5,52.9,4.3,53,3.5z"/>
	<path class="st1" d="M38.2,8.4c0,0.6,0,1.2,0,1.8c0,0.2,0,0.4,0,0.6c0,0.2-0.1,0.3-0.3,0.3c-0.2,0-0.2-0.1-0.2-0.3
		c0-1.1,0-2.2,0-3.3c0-0.2,0.1-0.3,0.3-0.3c0.3,0,0.5,0,0.6,0.2c0.2,0.4,0.4,0.8,0.7,1.2C39.5,9,39.6,9.5,40,9.9
		c0.2-0.3,0.1-0.6,0.1-0.9c0-0.4,0-0.7,0-1.1c0-0.2-0.1-0.6,0.3-0.6c0.4,0,0.3,0.4,0.3,0.6c0,0.9,0,1.8,0,2.7c0,0.2,0.1,0.5-0.3,0.6
		c-0.3,0.1-0.5-0.1-0.7-0.3c-0.2-0.5-0.5-1-0.8-1.4c-0.2-0.3-0.4-0.6-0.6-1C38.4,8.4,38.3,8.4,38.2,8.4z"/>
	<path class="st1" d="M29.5,16.9c-1.2,0-1.9-0.8-1.9-2.1c0-1.2,0.8-2,2-2c1.2,0,2,0.9,1.9,2.2C31.4,16.1,30.7,16.9,29.5,16.9z
		 M30.8,14.9c0-0.9-0.5-1.5-1.3-1.5c-0.7,0-1.2,0.6-1.2,1.5c0,0.9,0.6,1.5,1.3,1.5C30.3,16.3,30.8,15.7,30.8,14.9z"/>
	<path class="st1" d="M41.6,9.1c0-0.5,0-1,0-1.4c0-0.3,0.1-0.5,0.5-0.5c0.5,0,1,0,1.5,0.1c0.9,0.3,1.4,1,1.3,2.1
		c-0.1,1-0.6,1.6-1.6,1.7c-1.6,0.3-1.7,0.1-1.7-1.4C41.6,9.5,41.6,9.3,41.6,9.1C41.6,9.1,41.6,9.1,41.6,9.1z M42.1,9.1
		C42.1,9.1,42.1,9.1,42.1,9.1c0,0.3,0,0.7,0,1c0,0.3,0.2,0.5,0.5,0.5c0.9,0.1,1.4-0.4,1.6-1.1c0.1-0.9-0.3-1.6-1.2-1.8
		c-0.7-0.1-0.9,0-0.9,0.8C42.1,8.7,42.1,8.9,42.1,9.1z"/>
	<path class="st1" d="M27.1,22.5c-0.2,0-0.3-0.1-0.2-0.3c0.5-1.2,1-2.3,1.5-3.5c0.2-0.4,0.6-0.4,0.8,0c0.5,1.1,1,2.3,1.5,3.5
		c0,0.1,0,0.2-0.1,0.3c-0.1,0.1-0.3,0.1-0.4,0c-0.1,0-0.1-0.1-0.2-0.2c-0.2-0.2-0.1-0.7-0.5-0.7c-0.5-0.1-1,0-1.5,0
		c-0.3,0-0.3,0.3-0.4,0.5C27.5,22.3,27.4,22.6,27.1,22.5z M29.5,21c-0.3-0.6-0.5-1.1-0.7-1.7c-0.3,0.6-0.5,1.1-0.7,1.7
		C28.5,21,28.9,21,29.5,21z"/>
	<path class="st1" d="M41.5,22.3c0,0.2-0.1,0.2-0.3,0.2c-0.2,0-0.3-0.1-0.4-0.3c-0.2-0.8-0.7-0.7-1.3-0.7c-0.5,0-1,0-1.1,0.7
		c0,0.1-0.1,0.2-0.2,0.2c-0.1,0.1-0.3,0.1-0.4,0.1c-0.1-0.1-0.2-0.2-0.1-0.3c0.5-1.1,0.9-2.3,1.5-3.4c0.2-0.4,0.7-0.4,0.9,0
		c0.5,1.1,1,2.2,1.4,3.4C41.5,22.2,41.5,22.3,41.5,22.3z M39,20.9c0.4,0.1,0.8,0.1,1.3-0.1c-0.3-0.5-0.3-1.1-0.8-1.5
		C39.4,19.9,39,20.4,39,20.9z"/>
	<path class="st1" d="M35.1,20.5c0-0.5,0-1,0-1.5c0-0.3,0.1-0.5,0.5-0.5c0.5,0,1,0,1.4,0c0.2,0,0.3,0.1,0.3,0.3
		c0,0.2-0.2,0.3-0.3,0.3c-0.3,0-0.5,0-0.8,0c-0.5,0-0.4,0.3-0.4,0.6c0,0.4,0.1,0.4,0.5,0.5c0.3,0.1,1-0.3,1,0.3
		c0,0.5-0.6,0.3-0.9,0.3c-0.5,0-0.5,0.3-0.5,0.6c0,0.4,0.1,0.6,0.6,0.6c0.3,0,0.5,0,0.8,0c0.2,0,0.2,0.1,0.2,0.3
		c0,0.1-0.1,0.3-0.3,0.3c-0.5,0-1.1,0-1.6,0c-0.3,0-0.3-0.2-0.3-0.4C35.1,21.6,35.1,21.1,35.1,20.5z"/>
	<path class="st1" d="M55.6,3.4c0-0.5,0-1,0-1.4c0-0.3,0.1-0.5,0.4-0.5c0.5,0,1-0.1,1.5,0.1c1,0.3,1.5,1.2,1.4,2.2
		c-0.1,1-0.8,1.6-1.8,1.6c-1.9,0.1-1.5,0.1-1.5-1.4C55.6,3.8,55.6,3.6,55.6,3.4C55.6,3.4,55.6,3.4,55.6,3.4z M58.3,3.5
		c0-0.8-0.6-1.4-1.5-1.5c-0.4,0-0.6,0.1-0.6,0.5c0,0.5,0,1.1,0,1.6c0,0.9,0.2,1,1,0.8C57.9,4.6,58.3,4.2,58.3,3.5z"/>
	<path class="st1" d="M43.6,14.8c0.3,0.6,0.5,1.1,0.8,1.6c0.1,0.2,0.1,0.3-0.1,0.4c-0.2,0.1-0.4,0-0.5-0.1c-0.1-0.2-0.2-0.4-0.3-0.6
		c-0.1-0.2-0.2-0.5-0.4-0.7c-0.1-0.2-0.4-0.3-0.6-0.2c-0.2,0.1-0.2,0.3-0.2,0.5c0,0.3,0,0.6,0,0.9c0,0.2-0.2,0.3-0.4,0.3
		c-0.2,0-0.2-0.1-0.2-0.3c0-1.1,0-2.2,0-3.4c0-0.3,0.2-0.4,0.5-0.4c0.4,0,0.8,0,1.1,0.1c1,0.2,1.2,1,0.6,1.7
		C43.8,14.7,43.7,14.8,43.6,14.8z M42.3,14c0,0.3,0,0.5,0.4,0.5c0.4,0,0.8-0.3,0.8-0.6c0-0.4-0.3-0.6-0.8-0.6
		C42.3,13.4,42.3,13.7,42.3,14z"/>
	<path class="st1" d="M45.2,3.5c0-0.4,0-0.9,0-1.3c0-0.5,0.2-0.7,0.7-0.7c0.1,0,0.3,0,0.4,0c1.3,0,1.7,0.6,1,1.8
		c-0.1,0.3-0.1,0.4,0,0.7c0.1,0.3,0.3,0.6,0.4,0.9c0.1,0.2,0.2,0.4-0.1,0.5c-0.2,0.1-0.4,0-0.5-0.3C47.1,4.9,47,4.8,47,4.6
		c-0.1-0.2-0.2-0.4-0.3-0.5c-0.1-0.2-0.3-0.3-0.6-0.3c-0.3,0.1-0.2,0.3-0.3,0.5c0,0.2,0,0.4,0,0.6c0,0.2,0,0.5-0.3,0.5
		c-0.3,0-0.3-0.3-0.3-0.5C45.2,4.4,45.2,4,45.2,3.5C45.2,3.5,45.2,3.5,45.2,3.5z M45.8,2.8c0,0.2,0.1,0.4,0.5,0.4
		C46.7,3.1,47,3,47,2.6C47,2.1,46.6,2,46.2,2C45.8,1.9,45.8,2.3,45.8,2.8z"/>
	<path class="st1" d="M48.1,14.5c0,0.4,0,0.8,0,1.1c-0.1,0.8-0.6,1.2-1.4,1.3c-0.9,0.1-1.5-0.3-1.6-1.1C44.9,14.9,45,14,45,13.1
		c0-0.2,0.1-0.2,0.3-0.3c0.2,0,0.3,0.1,0.3,0.3c0,0.5,0,1,0,1.5c0,0.3,0,0.7,0.1,1c0.1,0.5,0.4,0.7,0.9,0.7c0.5,0,0.8-0.3,0.8-0.8
		c0.1-0.5,0-1.1,0-1.6c0-0.2,0-0.5,0-0.7c0-0.2,0.1-0.4,0.4-0.4c0.2,0,0.3,0.2,0.3,0.4C48.1,13.6,48.1,14.1,48.1,14.5
		C48.1,14.5,48.1,14.5,48.1,14.5z"/>
	<path class="st1" d="M36.8,9.1c-0.3,0.3-0.7,0.2-1,0.2c-0.5,0-0.6,0.3-0.6,0.7c0,0.4,0.1,0.6,0.6,0.6c0.3,0,1-0.3,1,0.3
		c0,0.4-0.6,0.1-1,0.2c-0.2,0-0.4,0-0.6,0c-0.4,0-0.6-0.1-0.6-0.5c0-1,0-2,0-3c0-0.2,0-0.4,0.2-0.4c0.6-0.1,1.3-0.1,1.9,0
		c0,0,0.1,0.1,0.1,0.2c0,0.1-0.1,0.2-0.1,0.2c-0.3,0-0.6,0-0.9,0c-0.4,0-0.5,0.2-0.5,0.6c0,0.4,0.1,0.6,0.5,0.6
		C36.1,8.9,36.5,8.7,36.8,9.1z"/>
	<path class="st1" d="M48.9,10.8c0,0.1,0,0.2-0.1,0.3c-0.1,0.1-0.3,0-0.4-0.1c0,0-0.1-0.1-0.1-0.2c-0.2-0.8-0.7-0.7-1.3-0.7
		c-0.6,0-1,0.1-1.2,0.7c-0.1,0.2-0.2,0.4-0.5,0.3c-0.3-0.1-0.1-0.3,0-0.5c0.4-1,0.8-1.9,1.2-2.9c0.1-0.2,0.2-0.5,0.5-0.5
		c0.3,0,0.4,0.2,0.5,0.4c0.4,1,0.8,1.9,1.2,2.9C48.9,10.6,48.9,10.7,48.9,10.8z M47.7,9.6c0-0.6-0.3-1.1-0.6-1.7
		c-0.4,0.6-0.6,1.1-0.6,1.7C46.9,9.7,47.3,9.7,47.7,9.6z"/>
	<path class="st1" d="M42.2,3.4c0-0.5,0-1,0-1.4c0-0.3,0.1-0.5,0.4-0.5c0.5,0,1.1,0,1.6,0c0.2,0,0.3,0.1,0.3,0.2
		c0,0.1-0.1,0.3-0.3,0.3c-0.3,0-0.5,0-0.8,0c-0.3,0-0.5,0.2-0.5,0.5c0,0.3,0.1,0.5,0.5,0.5c0.3,0,0.9-0.2,0.9,0.3
		c0,0.4-0.5,0.3-0.9,0.3c-0.4,0-0.5,0.3-0.5,0.6c0,0.3,0.1,0.6,0.5,0.6c0.1,0,0.2,0,0.3,0c0.3,0.1,0.7-0.2,0.7,0.3
		c0,0.3-0.4,0.2-0.7,0.2c-1.8,0-1.5,0.2-1.5-1.5C42.2,3.8,42.2,3.6,42.2,3.4C42.2,3.4,42.2,3.4,42.2,3.4z"/>
	<path class="st1" d="M49.9,18.5c0.3,0,0.5,0,0.8,0c0.2,0,0.2,0.1,0.2,0.3c0,0.2-0.1,0.3-0.2,0.3c-0.3,0-0.7,0-1,0
		c-0.4,0-0.3,0.3-0.4,0.6c0,0.3,0,0.5,0.4,0.5c0.3,0,0.5,0,0.8,0c0.2,0,0.3,0.1,0.3,0.3c0,0.2-0.1,0.2-0.3,0.3c-0.2,0-0.3,0-0.5,0
		c-0.7,0-0.7,0-0.7,0.8c0,0.4,0.1,0.5,0.5,0.5c0.3,0,0.5,0,0.8,0c0.2,0,0.3,0.1,0.3,0.3c0,0.2-0.2,0.3-0.4,0.3c0,0-0.1,0-0.1,0
		c-1.8,0.2-1.8,0.2-1.8-1.6c0-0.5,0-1.1,0-1.6c0-0.8,0-0.8,0.8-0.8C49.6,18.5,49.8,18.5,49.9,18.5C49.9,18.5,49.9,18.5,49.9,18.5z"
		/>
	<path class="st1" d="M25,22c0.1,0,0.2,0,0.4,0c0.2-0.1,0.4-0.2,0.5-0.5c0-0.2-0.1-0.4-0.2-0.5c-0.3-0.2-0.5-0.3-0.8-0.5
		c-0.6-0.4-0.8-1-0.5-1.6c0.3-0.5,1.4-0.7,1.8-0.4c0.1,0,0.1,0.2,0.1,0.3c0,0.1-0.1,0.3-0.2,0.2c-0.3,0-0.5-0.1-0.8,0
		c-0.4,0.1-0.5,0.5-0.2,0.8c0.2,0.2,0.5,0.3,0.8,0.5c0.7,0.4,0.9,1.1,0.5,1.7c-0.3,0.5-1.4,0.8-1.9,0.5c-0.1-0.1-0.2-0.2-0.2-0.3
		c0-0.2,0.2-0.2,0.3-0.2C24.7,22,24.8,22,25,22z"/>
	<path class="st1" d="M25.9,10.4c0.5-0.9,0.7-1.7,1-2.5C27,7.7,27,7.5,27.2,7.3c0-0.1,0.2-0.1,0.3-0.1c0.2,0,0.2,0.2,0.2,0.3
		c-0.2,0.5-0.3,1-0.5,1.4c-0.2,0.6-0.5,1.2-0.7,1.8c-0.1,0.3-0.2,0.4-0.5,0.4c-0.3,0-0.4-0.1-0.5-0.4c-0.4-1-0.8-2-1.1-3.1
		c-0.1-0.2-0.2-0.4,0.1-0.5c0.2-0.1,0.4,0.1,0.5,0.3c0.2,0.6,0.4,1.2,0.6,1.8C25.6,9.6,25.7,9.9,25.9,10.4z"/>
	<path class="st1" d="M59.6,3.5c0-0.4,0-0.9,0-1.3c0-0.5,0.2-0.7,0.7-0.7c0.4,0,0.8,0,1.2,0c0.2,0,0.4,0.1,0.3,0.3
		c0,0.2-0.2,0.3-0.4,0.3c-0.3,0-0.5,0-0.8,0c-0.3,0-0.5,0.2-0.5,0.5c0,0.3,0.1,0.5,0.5,0.5c0.2,0,0.3,0,0.5,0c0.2,0,0.6-0.1,0.5,0.3
		c0,0.3-0.3,0.3-0.6,0.3c-0.2,0-0.3,0-0.5,0c-0.4,0-0.4,0.3-0.4,0.6c0,0.3,0,0.6,0.4,0.7c0.3,0,0.6,0,0.9,0c0.1,0,0.3,0,0.3,0.2
		c0,0.2-0.1,0.2-0.3,0.2c0,0-0.1,0-0.1,0C59.6,5.7,59.6,5.6,59.6,3.5z"/>
	<path class="st1" d="M31,10.4c0.3-0.9,0.6-1.7,0.9-2.5c0.1-0.2,0.2-0.5,0.3-0.7c0.1-0.1,0.2-0.2,0.4-0.1c0.2,0,0.2,0.2,0.1,0.3
		c-0.4,1.1-0.8,2.2-1.3,3.3c-0.2,0.4-0.7,0.4-0.9,0c-0.4-1.1-0.8-2.2-1.2-3.2c-0.1-0.2-0.1-0.3,0.2-0.4c0.2,0,0.3,0.1,0.4,0.2
		c0.1,0.4,0.3,0.8,0.4,1.1C30.5,9.1,30.6,9.7,31,10.4z"/>
	<path class="st1" d="M51.1,13.4c-1.2,0-1.8,0.7-1.6,1.8c0.1,0.7,0.6,1.1,1.3,1.2c0.2,0,0.4,0,0.6,0c0.2,0,0.3,0,0.3,0.3
		c0,0.2-0.1,0.3-0.3,0.3c-0.8,0.1-1.7,0.1-2.2-0.6c-0.6-0.7-0.6-1.5-0.3-2.3c0.4-0.8,1-1.1,1.9-1.2c0.2,0,0.4,0,0.6,0.1
		c0.2,0,0.4,0.2,0.3,0.4c-0.1,0.2-0.3,0.2-0.4,0.1C51.3,13.4,51.2,13.4,51.1,13.4z"/>
	<path class="st1" d="M37,5c0.4,0,0.7,0,0.8-0.4c0.1-0.5-0.2-0.7-0.5-0.9c-0.2-0.1-0.3-0.1-0.5-0.2c-0.4-0.3-0.7-0.6-0.6-1.2
		c0.1-0.5,0.5-0.8,1.1-0.9c0.3,0,0.6,0.1,0.9,0.2c0.1,0,0.1,0.2,0.1,0.2c0,0.2-0.1,0.2-0.3,0.2c0,0-0.1,0-0.1,0
		c-0.4-0.1-0.9-0.2-1,0.3c-0.1,0.5,0.4,0.6,0.7,0.8c0.2,0.1,0.4,0.2,0.6,0.4c0.4,0.5,0.5,1.1,0.1,1.6c-0.4,0.4-1.4,0.6-1.8,0.3
		c-0.1-0.1-0.2-0.2-0.1-0.3c0-0.2,0.2-0.2,0.3-0.2C36.8,4.9,36.9,4.9,37,5z"/>
	<path class="st1" d="M26.6,13.4c-1,0-1.7,0.5-1.7,1.5c0,1,0.6,1.5,1.7,1.5c0.1,0,0.2,0,0.3,0c0.2,0,0.3,0.1,0.4,0.3
		c0,0.2-0.1,0.3-0.3,0.3c-0.8,0.1-1.6,0.1-2.2-0.6c-0.6-0.7-0.6-1.5-0.3-2.3c0.3-0.8,1-1.1,1.9-1.2c0.2,0,0.3,0,0.5,0
		c0.2,0,0.4,0.1,0.4,0.4c0,0.3-0.2,0.3-0.4,0.2C26.8,13.4,26.7,13.4,26.6,13.4z"/>
	<path class="st1" d="M36.7,16.3c-0.1,0,0,0,0.2,0c0.2,0,0.4-0.2,0.5-0.4c0.1-0.3-0.1-0.5-0.3-0.6c-0.3-0.2-0.5-0.3-0.8-0.4
		c-0.6-0.4-0.7-1.1-0.3-1.6c0.3-0.4,1.3-0.6,1.8-0.3c0.1,0,0.1,0.2,0.1,0.3c0,0.2-0.1,0.2-0.3,0.2c-0.1,0-0.3,0-0.4,0
		c-0.3,0-0.7,0-0.7,0.4c-0.1,0.4,0.3,0.5,0.5,0.7c0.1,0.1,0.2,0.1,0.4,0.2c0.7,0.4,0.9,0.9,0.7,1.5c-0.2,0.5-0.6,0.8-1.3,0.8
		c-0.1,0-0.2,0-0.3,0c-0.3,0-0.6,0-0.6-0.4C35.8,16.3,35.9,16.3,36.7,16.3z"/>
	<path class="st1" d="M54.4,13.4c-1,0-1.6,0.6-1.6,1.5c0,0.9,0.6,1.4,1.6,1.4c0.2,0,0.6-0.3,0.7,0.2c0.1,0.5-0.4,0.4-0.7,0.4
		c-1.4,0.1-2.3-0.7-2.3-2.1c0-1.3,1.1-2.2,2.4-2c0.2,0,0.3,0.1,0.5,0.1c0.1,0.1,0.2,0.2,0.1,0.4c0,0.1-0.1,0.2-0.2,0.1
		C54.7,13.4,54.5,13.4,54.4,13.4z"/>
	<path class="st1" d="M56.7,18.5c0.3,0,0.7,0,1,0c0.2,0,0.4,0,0.5,0.3c0,0.3-0.2,0.3-0.4,0.3c-0.1,0-0.2,0-0.3,0
		c-0.4,0-0.5,0.2-0.5,0.6c0,0.6,0,1.2,0,1.8c0,0.2,0,0.4,0,0.6c0,0.2-0.1,0.4-0.3,0.4c-0.3,0-0.3-0.2-0.3-0.4c0-0.4,0-0.7,0-1.1
		c0-0.3,0-0.7,0-1c0-0.8,0-0.8-0.8-0.9c-0.2,0-0.4,0-0.4-0.3c0-0.3,0.2-0.3,0.4-0.3C56,18.5,56.4,18.5,56.7,18.5z"/>
	<path class="st1" d="M39.9,3.7c0-0.3,0-0.5,0-0.8C40,2.4,39.9,2,39.2,2c-0.1,0-0.2,0-0.3-0.1c-0.1-0.1-0.2-0.2-0.2-0.2
		c0-0.1,0.1-0.2,0.2-0.2c0.9,0,1.8,0,2.6,0c0.1,0,0.2,0.1,0.2,0.2c0,0.2-0.1,0.3-0.2,0.3c-0.3,0.1-0.7-0.1-0.8,0.2
		c-0.2,0.4-0.1,0.8-0.1,1.2c0,0.5,0,1,0,1.4c0,0.2,0,0.5-0.3,0.5c-0.3,0-0.4-0.2-0.4-0.5C39.9,4.5,39.9,4.1,39.9,3.7
		C39.9,3.7,39.9,3.7,39.9,3.7z"/>
	<path class="st1" d="M66.3,12.8c1.1,0,1.1,1.2,1.8,1.6c0.4-0.2,0.5-0.7,0.8-1c0.1-0.2,0.2-0.4,0.5-0.5c0.1-0.1,0.3-0.1,0.4,0
		c0.1,0.1,0.1,0.2,0,0.4c-0.2,0.3-0.4,0.6-0.6,0.9c-0.5,0.6-0.8,1.3-0.7,2.1c0,0.2,0.1,0.5-0.3,0.5c-0.4,0-0.4-0.3-0.3-0.5
		c0.2-1-0.3-1.7-0.8-2.4C66.7,13.6,66.4,13.3,66.3,12.8z"/>
	<path class="st1" d="M39.5,15.1c0-0.2,0-0.5,0-0.7c0-0.9,0-0.9-0.9-1c-0.2,0-0.3-0.1-0.3-0.3c0-0.2,0.2-0.3,0.3-0.3
		c0.8,0,1.6,0,2.3,0c0.2,0,0.3,0.1,0.3,0.3c0,0.2-0.1,0.3-0.3,0.3c-0.1,0-0.3,0-0.4,0c-0.4,0-0.5,0.2-0.5,0.5c0,0.7,0,1.4,0,2
		c0,0.2,0,0.4,0,0.6c0,0.1-0.1,0.3-0.2,0.3c-0.2,0-0.3-0.1-0.3-0.3C39.5,16.1,39.5,15.6,39.5,15.1C39.5,15.1,39.5,15.1,39.5,15.1z"
		/>
	<path class="st1" d="M35,3.3c0-0.4,0-0.9,0-1.3c0-0.2,0-0.5,0.4-0.5c0.3,0,0.3,0.2,0.3,0.4c0,1,0,2,0,3.1c0,0.2-0.1,0.4-0.4,0.4
		C35.1,5.4,35,5.2,35,5C35,4.4,35,3.9,35,3.3z"/>
	<path class="st1" d="M47.2,20.5c0-0.5,0-1.1,0-1.6c0-0.2,0-0.3,0.2-0.4c0.3,0,0.4,0.1,0.4,0.4c0,0.7,0,1.4,0,2.1c0,0.4,0,0.7,0,1.1
		c0,0.2-0.1,0.4-0.4,0.4c-0.2,0-0.3-0.2-0.3-0.4C47.2,21.6,47.2,21.1,47.2,20.5z"/>
	<path class="st1" d="M55.6,14.7c0-0.5,0-1,0-1.5c0-0.2,0.1-0.3,0.3-0.4c0.3,0,0.4,0.1,0.4,0.4c0,1.1,0,2.2,0,3.3
		c0,0.2-0.1,0.4-0.4,0.4c-0.2,0-0.3-0.2-0.3-0.4C55.6,15.9,55.6,15.3,55.6,14.7z"/>
	<path class="st1" d="M49.1,3.5c0,0.5,0,1,0,1.5c0,0.2-0.1,0.3-0.3,0.3c-0.2,0-0.3-0.1-0.3-0.3c0-1.1,0-2.1,0-3.2
		c0-0.2,0.1-0.3,0.3-0.4c0.3,0,0.3,0.2,0.4,0.4C49.1,2.5,49.1,3,49.1,3.5C49.1,3.5,49.1,3.5,49.1,3.5z"/>
	<path class="st1" d="M30.3,3.5c0,0.5,0,1,0,1.5c0,0.2,0,0.4-0.3,0.4c-0.2,0-0.3-0.2-0.3-0.4c0-1,0-2.1,0-3.1c0-0.2,0.1-0.3,0.3-0.4
		c0.3,0,0.3,0.2,0.3,0.4C30.3,2.4,30.3,2.9,30.3,3.5z"/>
	<path class="st1" d="M33.8,9.2c0,0.5,0,1,0,1.5c0,0.2,0,0.4-0.2,0.4c-0.3,0-0.3-0.2-0.3-0.4c0-1.1,0-2.1,0-3.2
		c0-0.2,0.1-0.3,0.3-0.3c0.2,0,0.3,0.2,0.3,0.3C33.8,8.1,33.8,8.7,33.8,9.2C33.8,9.2,33.8,9.2,33.8,9.2z"/>
	<path class="st1" d="M28.7,9.2c0,0.5,0,0.9,0,1.4c0,0.2,0,0.4-0.3,0.5c-0.3,0-0.3-0.2-0.3-0.4c0-0.5,0-0.9,0-1.4c0-0.4,0-0.9,0-1.3
		c0-0.2-0.1-0.7,0.3-0.6c0.5,0,0.3,0.4,0.3,0.7C28.7,8.4,28.7,8.8,28.7,9.2C28.7,9.2,28.7,9.2,28.7,9.2z"/>
	<path class="st1" d="M22.4,10.1c-1.4-1.4-2.8-2.8-4.2-4.2c-1.1-1.1-2.1-2.1-3.2-3.2c-0.3-0.3-0.5-0.6-0.9-0.7c-2,2-3.9,4-5.9,6.1
		c0.1,0.2,0.4,0.1,0.6,0.1c1.3,0,2.7,0,4,0c0.7,0,0.8,0.1,0.8,0.8c0,1.7,0,3.5,0,5.2c0,0.7-0.1,0.8-0.8,0.8c-0.7,0-1.4,0-2,0
		c-0.7,0-0.8-0.1-0.8-0.9c0-0.6,0-1.2,0-1.7c0-0.4-0.2-0.5-0.5-0.5c-1,0-1.9,0-2.9,0c-0.7,0-0.7,0-0.7,0.7c0,3.3,0,6.6,0,9.8
		c-1.3,0-2.6,0-3.9,0c-0.4,0-0.6-0.1-0.6-0.6c0-0.2,0-0.3,0-0.5c0-6.3,0-12.6,0-18.8c0-1.2-0.1-1.1,1.1-1.1c6.3,0,12.6,0,18.9,0
		c0.1,0,0.3,0,0.4,0c0.5,0,0.7,0.1,0.7,0.6C22.4,4.8,22.4,7.4,22.4,10.1z"/>
	<path class="st1" d="M11.8,21.4c-0.8,0-1.4-0.4-1.8-1.1c-0.4-0.7-0.4-1.5,0.1-2.2c0.1-0.2,0.2-0.3,0.4-0.5c0.5-0.4,0.8-1.2,1.5-1.3
		c0.5-0.1,2,2.1,2.1,2.8C14,20.4,13.1,21.5,11.8,21.4z"/>
</g>
</svg>
