<?xml version="1.0" encoding="utf-8"?>
<!-- Generator: Adobe Illustrator 19.2.1, SVG Export Plug-In . SVG Version: 6.00 Build 0)  -->
<svg version="1.1" id="Capa_1" xmlns="http://www.w3.org/2000/svg" xmlns:xlink="http://www.w3.org/1999/xlink" x="0px" y="0px"
	 viewBox="0 0 71.2 20.6" style="enable-background:new 0 0 71.2 20.6;" xml:space="preserve">
<style type="text/css">
	.st0{opacity:0.81;}
	.st1{fill:#FFFFFF;}
	.st2{fill:none;}
</style>
<g class="st0">
	<path class="st1" d="M34.6,9c0.2,0.3,0.2,0.9,0.5,0.9c0.3,0,0.4-0.6,0.6-0.9c0.3-0.5,0.5-1.1,0.7-1.7c0.1-0.1,0.1-0.2,0.1-0.3
		c0-0.1,0.1-0.2,0.1-0.3c0.1-0.1,0.1-0.2,0.1-0.3l0,0c0.2,0,0.4,0,0.5-0.1c0.3,0,0.7,0,1,0c0.2,0.1,0.3,0.1,0.5,0.1
		c0,0.1,0.1,0.2,0.1,0.3c0,1.9,0,3.7,0,5.6c0,1.5,0.2,1.3-1.3,1.6c-0.1,0-0.1,0-0.2-0.1c0,0,0-0.1,0-0.1c0-1.4,0-2.8,0-4.2
		c0-0.2,0.1-0.4-0.2-0.5C37,9.4,36.9,9.7,36.8,10c-0.3,0.7-0.6,1.3-0.8,2c-0.1,0.3-0.3,0.5-0.7,0.5c-0.4,0-0.7,0-0.9-0.5
		c-0.2-0.6-0.5-1.1-0.7-1.7c0-0.4-0.4-0.7-0.4-1.2c0-0.1-0.1-0.1-0.2-0.1C33,9.1,33,9.2,33,9.3c0.1,0.9-0.1,1.8,0.2,2.6
		c-0.1,0.4,0,0.8,0,1.3c-0.1,0.1-0.1,0.2,0,0.3c0,0.1,0,0.2-0.1,0.3c0,0,0,0.1-0.1,0.1c-0.1,0-0.1,0-0.2,0c-1.2,0.2-1.2,0.1-1.2-1.1
		c0-1.9,0-3.9,0-5.8c0-0.4,0.1-0.6,0.5-0.6c0.4,0,0.8,0,1.1,0c0.4,0,0.6,0.2,0.6,0.6C34,7.3,34,7.6,34.2,7.8c0,0.1,0.1,0.2,0.1,0.3
		C34.3,8.5,34.5,8.7,34.6,9z"/>
	<path class="st1" d="M53.5,13.5c0-2.1,0-4.1,0-6.2c0-0.3-0.1-0.6,0.2-0.7c0.4-0.1,0.9-0.1,1.4,0c0.2,0.1,0.1,0.3,0.1,0.4
		c0,0.7,0,1.4-0.1,2.1c0,0.3,0.1,0.3,0.3,0.3c0.6,0,1.2,0,1.8,0c0.3,0,0.4-0.2,0.3-0.5c0-0.7,0-1.3,0-2c0-0.4,0.2-0.5,0.5-0.5
		c1-0.2,1.2,0,1.2,1c0,1.9,0,3.9,0,5.8c0,0.6-0.3,0.7-0.8,0.7c-0.5,0-1,0.1-0.9-0.7c0-0.6,0-1.2,0-1.8c0-0.5-0.2-0.7-0.7-0.7
		c-0.5,0-0.9,0.2-1.3,0c-0.3-0.1-0.3,0.2-0.3,0.4c0,0.7,0,1.3,0,2c0,0.5-0.2,0.7-0.7,0.7c-0.4,0-0.8,0.2-1-0.4
		C53.5,13.6,53.5,13.5,53.5,13.5z"/>
	<path class="st1" d="M40.5,7.9c0.4-1.1,2.2-1.7,3.6-1.4c1.1,0.3,1.8,1,2.1,2c0.4,1.4,0.4,2.9-0.3,4.2c-0.6,1.2-1.8,1.6-3.2,1.4
		c-1.3-0.1-2.1-1-2.4-2.2c-0.2-0.9-0.2-1.9-0.2-2.8C40.2,8.7,40.4,8.3,40.5,7.9z M44.6,10.3c0-0.6,0-1.2-0.2-1.8
		c-0.2-0.6-0.6-0.7-1.2-0.8c-0.5-0.1-0.9,0.2-1.1,0.6c-0.5,1.3-0.4,2.5,0,3.8c0.2,0.5,0.6,0.7,1.2,0.7c0.5,0,0.9-0.3,1.1-0.8
		C44.6,11.5,44.6,10.9,44.6,10.3z"/>
	<path class="st1" d="M11.9,11.1c0-0.3-0.2-0.3-0.4-0.3c-0.6,0-1.2,0-1.8,0c-0.3,0-0.2,0.3-0.2,0.5c0,0.9,0,1.7,0,2.6l0,0
		C9.4,14,9.3,14,9.3,14c-0.4,0-0.8,0-1.2,0c0-2,0-4,0-6c0-1.6,0-1.6,1.6-1.5l0,0c0,0.8,0,1.6,0,2.4c0,0.2-0.2,0.5,0.2,0.4
		c0.1,0,0.1,0,0.2,0c0.6,0.1,1.3,0.2,1.9-0.1c0-0.1,0-0.2,0-0.2c0-0.3,0-0.7,0-1c0-1.7-0.3-1.6,1.6-1.5l0,0c0,2.4,0,4.9,0,7.3l0,0
		c-0.1,0-0.2,0.1-0.3,0.1c-0.3,0-0.5,0-0.8,0c-0.2-0.1-0.4-0.1-0.6-0.2c0-0.2,0-0.3,0-0.5C12,12.7,12,11.9,11.9,11.1z"/>
	<path class="st1" d="M15.5,10.4c0-0.1,0.1-0.2,0.1-0.3c0.4-1,0.8-1.9,1-3l0,0c0.1-0.5,0.6-0.5,1-0.6c0.2,0,0.3,0,0.5,0
		c0.7,0,1,0.4,1.1,1c0.2,0.6,0.3,1.2,0.6,1.7c0.4,1.3,0.8,2.6,1.3,3.9c0,0.2,0,0.4,0.1,0.5c0,0.1,0,0.2,0,0.2c-0.1,0-0.3,0-0.4,0.1
		c-0.3,0-0.5,0-0.8,0c-0.3-0.1-0.6-0.3-0.7-0.6c0-0.1-0.1-0.2-0.1-0.3c0-0.6-0.2-0.8-0.8-0.8c-0.5,0-1,0-1.5,0
		c-0.4,0-0.6,0.1-0.7,0.5c-0.1,0.5-0.2,1.1-0.9,1.1c-0.1,0-0.2,0-0.3,0C15,13.9,14.8,14,14.6,14c0,0,0,0,0,0c0-0.1-0.1-0.1-0.1-0.2
		c0.2-0.8,0.4-1.5,0.7-2.3c0-0.1,0.1-0.1,0.1-0.2c0,0,0,0,0-0.1C15.4,11,15.5,10.7,15.5,10.4z M17.9,11.2c0.1,0,0.2,0,0.3,0
		c0.5,0.1,0.6-0.1,0.4-0.6C18.4,10,18.2,9.4,18,8.8c0-0.1-0.1-0.2-0.2-0.2c-0.1,0-0.2,0.1-0.2,0.2c-0.1,0.5-0.3,1-0.5,1.6
		c-0.2,0.8-0.2,0.8,0.6,0.8C17.8,11.2,17.8,11.2,17.9,11.2z"/>
	<path class="st1" d="M22.9,13c-0.5-2-1.3-3.9-1.8-5.9C21.2,6.9,21,6.8,21,6.6c0,0,0.1,0,0.1-0.1c0.5,0,1,0,1.5,0
		c0.5,1.8,1.1,3.5,1.7,5.4c0.4-0.3,0.3-0.8,0.4-1.1c0.2-0.2,0.2-0.4,0.2-0.7c0-0.1,0-0.1,0-0.2c0.5-0.8,0.6-1.8,0.9-2.6
		c0.1-0.4,0.3-0.8,0.8-0.8c0.1,0,0.2,0,0.2,0c0.2,0.1,0.5,0.1,0.7,0.2c0,0.1,0,0.2,0,0.2c-0.1,0.2-0.3,0.5-0.2,0.7
		c-0.6,1.9-1.4,3.8-1.8,5.7c-0.2,0.2-0.2,0.3-0.2,0.5l0,0c-0.6,0-1.2,0.1-1.8,0.1c-0.1,0-0.3-0.1-0.4-0.1c0,0-0.1-0.1-0.1-0.1
		c0,0,0-0.1,0-0.1C23.2,13.4,23.1,13.2,22.9,13z"/>
	<path class="st1" d="M67.4,12.7c0.2,0,0.5-0.1,0.7-0.1c0.2,0,0.3,0.1,0.5,0.1c0,0,0,0,0,0.1c0.4,1,0.1,1.3-1,1.4
		c-0.7,0-1.5-0.1-2.2,0c-0.2,0-0.3-0.2-0.4-0.3c-0.9-0.7-1.4-1.6-1.5-2.8c0-0.8-0.1-1.7,0.2-2.5c0.7-1.9,2.2-2.4,4.2-2
		c0.2,0,0.5,0.2,0.7,0.2l0,0c0,0.1,0,0.2,0.1,0.3c-0.2,0.2-0.2,0.4-0.2,0.7c0,0,0,0,0,0c-0.1,0-0.2,0.1-0.2,0.2l0,0
		c-0.4-0.1-0.9-0.1-1.3-0.2c-0.8,0-1.2,0.3-1.4,0.9c-0.4,1.1-0.4,2.2,0,3.3c0,0.3,0.1,0.4,0.4,0.5l0,0c0.1,0.2,0.2,0.3,0.4,0.2
		c0.1,0,0.2,0,0.3,0.1C66.9,12.8,67.1,12.8,67.4,12.7z"/>
	<path class="st1" d="M4.8,12.7c0,0,0.1,0,0.1,0c0.3,0.2,0.6,0.1,0.9,0c0.3,0,0.6-0.2,0.9,0.1c0.5,0.5,0.4,1-0.3,1.2
		c-1.5,0.4-3.3,0.2-4.2-1.2c-0.2-0.4-0.5-0.7-0.4-1.2c0-0.4-0.2-0.7-0.2-1C1.1,7.8,3.5,5.7,6.2,6.5C6.5,6.6,7,6.6,6.8,7.1
		C6.7,7.6,6.6,8,5.9,7.8C5.8,7.8,5.6,7.8,5.4,7.7C4.6,7.7,4,7.9,3.7,8.7C3.6,8.7,3.6,8.8,3.5,8.9c0,0,0,0.1,0,0.1c0,0.1,0,0.3,0,0.4
		c0,0.8-0.2,1.5,0.1,2.3c0.1,0.5,0.3,1,0.9,1.1c0,0,0.1,0,0.1,0C4.7,12.7,4.7,12.7,4.8,12.7z"/>
	<path class="st1" d="M52.1,7.8c-0.5,0-1,0-1.4,0c-1,0-1.4,0.5-1.5,1.4c-0.1,0.8-0.1,1.6,0,2.4c0.1,0.6,0.4,1,1,1.1
		c0.4,0.1,0.7,0.1,1.1,0c0.8-0.1,1,0,1.2,0.7c0.1,0.3-0.1,0.4-0.3,0.4c-2.1,0.7-4.6,0.2-4.9-2.7c-0.1-1.3-0.1-2.6,0.8-3.8
		c0.7-0.9,2.4-1.3,3.4-0.9c0.2,0.1,0.5,0,0.7,0.2C52.5,7.1,52.1,7.5,52.1,7.8z"/>
	<path class="st1" d="M30.2,10.3c0,1,0,2.1,0,3.1c0,0.4-0.1,0.6-0.6,0.6c-1.1,0.1-1.2,0-1.2-1.1c0-1.9,0-3.8,0-5.7
		c0-0.5,0.1-0.7,0.7-0.7c1,0,1,0,1,1C30.2,8.5,30.2,9.4,30.2,10.3z"/>
	<path class="st1" d="M62.3,13.9c-0.1,0-0.2,0.1-0.2,0.1c-0.2,0-0.3,0-0.5,0c-0.8,0-0.8,0-0.8-0.8c0-2.2,0-4.3,0-6.5l0,0
		c0.3,0,0.7,0,1-0.1c0.2,0,0.3,0.1,0.5,0.1c0,0.9,0,1.7,0,2.6c0,1.3-0.1,2.7,0.1,4c0,0.1,0,0.2,0,0.3c0,0.1,0,0.2,0,0.3
		C62.3,13.8,62.3,13.8,62.3,13.9L62.3,13.9z"/>
</g>
<rect class="st2" width="71.2" height="20.6"/>
</svg>
