<?xml version="1.0" encoding="utf-8"?>
<!-- Generator: Adobe Illustrator 19.2.1, SVG Export Plug-In . SVG Version: 6.00 Build 0)  -->
<svg version="1.1" id="Capa_1" xmlns="http://www.w3.org/2000/svg" xmlns:xlink="http://www.w3.org/1999/xlink" x="0px" y="0px"
	 viewBox="0 0 71.2 24" style="enable-background:new 0 0 71.2 24;" xml:space="preserve">
<style type="text/css">
	.st0{opacity:0.78;}
	.st1{fill:#FFFFFF;}
</style>
<g class="st0">
	<path class="st1" d="M26.6,12.8c0.9,0.7,1.9,1.2,3,1.5c0.3,0.1,0.6,0.1,1,0.1c0.6,0,1.1-0.2,1.5-0.6c0.5-0.5,1.1-0.9,1.7-1.3
		c0.9-0.6,1.9-1,2.9-0.9c0.6,0,1.3,0.1,1.9,0.2c1.3,0.2,2.5,0.6,3.8,1c1.2,0.4,2.4,0.5,3.6,0.4c0.1,0,0.2,0,0.3-0.1V3.3H25.9v8.9
		C26.1,12.4,26.3,12.6,26.6,12.8z"/>
	<path class="st1" d="M6.3,19.8c0,0.1,0,0.2,0,0.3c0,0.1,0,0.2,0,0.3c0,0.1,0,0.3,0,0.4c0,0.2,0,0.3,0,0.3c0,0,0,0-0.1,0
		c-0.1,0-0.1,0-0.2,0c-0.3,0-0.5,0-0.7-0.1c-0.2-0.1-0.4-0.2-0.5-0.3c-0.1-0.1-0.2-0.2-0.2-0.4c-0.1-0.2-0.1-0.3-0.1-0.5
		c0-0.2,0.1-0.5,0.2-0.6C4.7,19,4.8,18.9,5,18.8c0.1-0.1,0.3-0.1,0.4-0.2c0.2,0,0.3-0.1,0.5-0.1c0,0,0.1,0,0.1,0c0,0,0,0,0.1,0
		l0,0.3c0,0,0,0-0.1,0c0,0-0.1,0-0.1,0c-0.2,0-0.3,0-0.5,0.1S5.3,18.9,5.2,19c-0.1,0.1-0.3,0.2-0.3,0.4c-0.1,0.2-0.1,0.3-0.1,0.5
		c0,0.2,0,0.4,0.1,0.5c0.1,0.1,0.2,0.3,0.3,0.3c0.1,0.1,0.3,0.1,0.4,0.2c0.1,0,0.3,0,0.4,0c0,0,0-0.1,0-0.3c0-0.2,0-0.4,0-0.8H6.3z"
		/>
	<path class="st1" d="M8.4,21.2c0,0-0.1,0-0.2,0c-0.1,0-0.3,0-0.5,0c-0.1,0-0.3,0-0.4,0c-0.1,0-0.2,0-0.3,0c0-0.1,0-0.2,0-0.5
		c0-0.3,0-0.5,0-0.8c0-0.1,0-0.3,0-0.6c0-0.2,0-0.5,0-0.8c0.1,0,0.2,0,0.3,0c0.1,0,0.2,0,0.4,0c0.2,0,0.4,0,0.5,0c0.1,0,0.2,0,0.2,0
		v0.3c0,0-0.1,0-0.2,0c-0.1,0-0.3,0-0.5,0c-0.1,0-0.2,0-0.3,0c-0.1,0-0.1,0-0.2,0c0,0.1,0,0.3,0,0.4c0,0.1,0,0.3,0,0.4
		c0.1,0,0.1,0,0.2,0c0.1,0,0.1,0,0.2,0c0.2,0,0.4,0,0.5,0c0.2,0,0.2,0,0.3,0v0.3c0,0-0.1,0-0.3,0c-0.2,0-0.3,0-0.5,0
		c-0.1,0-0.1,0-0.2,0s-0.1,0-0.2,0c0,0.2,0,0.4,0,0.6c0,0.1,0,0.3,0,0.4c0.1,0,0.1,0,0.2,0c0.1,0,0.2,0,0.3,0c0.2,0,0.3,0,0.4,0
		c0.1,0,0.2,0,0.2,0V21.2z"/>
	<path class="st1" d="M11.2,19.9c0,0.2,0,0.4-0.1,0.6s-0.1,0.3-0.2,0.4c-0.1,0.1-0.2,0.2-0.4,0.3c-0.1,0.1-0.3,0.1-0.4,0.1
		c-0.1,0-0.3,0-0.4-0.1c-0.1-0.1-0.2-0.1-0.3-0.2c-0.1-0.1-0.2-0.3-0.3-0.4c-0.1-0.2-0.1-0.4-0.1-0.6c0-0.2,0-0.4,0.1-0.5
		c0.1-0.2,0.1-0.3,0.2-0.4c0.1-0.1,0.2-0.2,0.4-0.3c0.1-0.1,0.3-0.1,0.4-0.1c0.2,0,0.3,0,0.4,0.1c0.1,0.1,0.2,0.2,0.3,0.3
		c0.1,0.1,0.2,0.3,0.3,0.5C11.1,19.5,11.2,19.7,11.2,19.9z M10.9,19.9c0-0.2,0-0.3-0.1-0.5c0-0.2-0.1-0.3-0.2-0.4
		c-0.1-0.1-0.1-0.1-0.2-0.2c-0.1,0-0.2-0.1-0.3-0.1c-0.1,0-0.2,0-0.3,0.1c-0.1,0-0.2,0.1-0.2,0.2c-0.1,0.1-0.2,0.2-0.2,0.4
		c-0.1,0.2-0.1,0.3-0.1,0.5c0,0.2,0,0.4,0.1,0.5c0.1,0.1,0.1,0.3,0.2,0.4c0.1,0.1,0.1,0.1,0.2,0.2C9.8,21,9.9,21,10,21
		c0.1,0,0.2,0,0.3-0.1c0.1,0,0.2-0.1,0.2-0.2c0.1-0.1,0.2-0.2,0.2-0.4C10.8,20.2,10.9,20.1,10.9,19.9z"/>
	<path class="st1" d="M13.5,19.8c0,0.1,0,0.2,0,0.3c0,0.1,0,0.2,0,0.3c0,0.1,0,0.3,0,0.4c0,0.2,0,0.3,0,0.3c0,0,0,0-0.1,0
		s-0.1,0-0.2,0c-0.3,0-0.5,0-0.7-0.1c-0.2-0.1-0.4-0.2-0.5-0.3c-0.1-0.1-0.2-0.2-0.2-0.4c-0.1-0.2-0.1-0.3-0.1-0.5
		c0-0.2,0.1-0.5,0.2-0.6c0.1-0.2,0.3-0.3,0.5-0.5c0.1-0.1,0.3-0.1,0.4-0.2c0.2,0,0.3-0.1,0.5-0.1c0,0,0.1,0,0.1,0c0,0,0,0,0.1,0
		l0,0.3c0,0,0,0-0.1,0c0,0-0.1,0-0.1,0c-0.2,0-0.3,0-0.5,0.1s-0.3,0.1-0.4,0.1c-0.1,0.1-0.3,0.2-0.3,0.4c-0.1,0.2-0.1,0.3-0.1,0.5
		c0,0.2,0,0.4,0.1,0.5c0.1,0.1,0.2,0.3,0.3,0.3c0.1,0.1,0.3,0.1,0.4,0.2c0.1,0,0.3,0,0.4,0c0,0,0-0.1,0-0.3c0-0.2,0-0.4,0-0.8H13.5z
		"/>
	<path class="st1" d="M16,21l-0.2,0.2c0,0-0.1-0.1-0.3-0.3c-0.2-0.2-0.4-0.5-0.7-0.9l0,0c0,0,0.1,0,0.2-0.1s0.1-0.1,0.2-0.1
		c0,0,0.1-0.1,0.1-0.2c0-0.1,0-0.2,0-0.3c0-0.1,0-0.2-0.1-0.3c0-0.1-0.1-0.1-0.2-0.2c-0.1,0-0.1,0-0.2-0.1c-0.1,0-0.1,0-0.2,0
		c0,0-0.1,0-0.1,0c0,0,0,0,0,0c0,0.2,0,0.5,0,0.7c0,0.2,0,0.3,0,0.4c0,0.2,0,0.4,0,0.7c0,0.3,0,0.5,0,0.6h-0.3c0-0.1,0-0.2,0-0.5
		c0-0.2,0-0.5,0-0.8c0-0.1,0-0.2,0-0.4c0-0.2,0-0.5,0-1c0,0,0.1,0,0.2,0c0.1,0,0.2,0,0.3,0c0.1,0,0.2,0,0.3,0c0.1,0,0.2,0,0.3,0.1
		c0.1,0.1,0.2,0.1,0.3,0.2c0.1,0.1,0.1,0.2,0.1,0.4c0,0.2-0.1,0.3-0.2,0.5c-0.1,0.1-0.2,0.2-0.3,0.3v0c0.2,0.2,0.3,0.4,0.5,0.6
		C15.9,20.9,16,21,16,21z"/>
	<path class="st1" d="M18.3,21.1l-0.3,0.2c0,0,0-0.1-0.1-0.3s-0.2-0.4-0.3-0.7h-1c-0.1,0.3-0.2,0.5-0.3,0.7s-0.1,0.3-0.1,0.3
		l-0.2-0.1c0-0.1,0.2-0.4,0.4-0.9c0.2-0.5,0.4-1.1,0.7-1.7h0.2c0.2,0.6,0.5,1.2,0.7,1.7C18.2,20.8,18.3,21,18.3,21.1z M17.6,20
		c-0.1-0.2-0.1-0.3-0.2-0.5c-0.1-0.2-0.1-0.4-0.2-0.5l0,0c-0.1,0.1-0.1,0.3-0.2,0.5c-0.1,0.2-0.1,0.4-0.2,0.5l0,0L17.6,20L17.6,20z"
		/>
	<path class="st1" d="M20.2,18.8c0,0-0.1,0-0.2,0c-0.1,0-0.3,0-0.5,0c-0.1,0-0.2,0-0.2,0c-0.1,0-0.1,0-0.2,0c0,0.1,0,0.3,0,0.5
		c0,0.2,0,0.3,0,0.5c0,0,0.1,0,0.1,0s0.1,0,0.2,0c0.2,0,0.4,0,0.5,0c0.2,0,0.3,0,0.3,0V20c0,0-0.1,0-0.3,0c-0.2,0-0.4,0-0.5,0
		c0,0-0.1,0-0.2,0c-0.1,0-0.1,0-0.1,0c0,0.2,0,0.4,0,0.7c0,0.2,0,0.4,0,0.5h-0.3c0-0.1,0-0.2,0-0.4c0-0.2,0-0.5,0-0.9
		c0-0.1,0-0.3,0-0.6c0-0.2,0-0.5,0-0.8c0.1,0,0.2,0,0.3,0c0.1,0,0.2,0,0.4,0c0.2,0,0.4,0,0.5,0c0.1,0,0.2,0,0.2,0V18.8z"/>
	<path class="st1" d="M21.5,18l-0.8,0.4l-0.1-0.2l0.7-0.4L21.5,18z M21.1,21.2h-0.3c0-0.1,0-0.2,0-0.4c0-0.2,0-0.5,0-0.9
		c0-0.1,0-0.3,0-0.6c0-0.2,0-0.5,0-0.8h0.3c0,0.2,0,0.4,0,0.7c0,0.2,0,0.4,0,0.6c0,0.4,0,0.7,0,0.9C21.1,20.9,21.1,21.1,21.1,21.2z"
		/>
	<path class="st1" d="M23.8,21.1l-0.3,0.2c0,0,0-0.1-0.1-0.3c-0.1-0.2-0.2-0.4-0.3-0.7h-1c-0.1,0.3-0.2,0.5-0.3,0.7
		s-0.1,0.3-0.1,0.3l-0.2-0.1c0-0.1,0.2-0.4,0.4-0.9c0.2-0.5,0.4-1.1,0.7-1.7h0.2c0.2,0.6,0.5,1.2,0.7,1.7
		C23.7,20.8,23.8,21,23.8,21.1z M23,20c-0.1-0.2-0.1-0.3-0.2-0.5c-0.1-0.2-0.1-0.4-0.2-0.5l0,0c-0.1,0.1-0.1,0.3-0.2,0.5
		c-0.1,0.2-0.1,0.4-0.2,0.5l0,0L23,20L23,20z"/>
	<g>
		<path class="st1" d="M32.4,20.1c0,0-0.1-0.1-0.2-0.1c-0.1,0-0.1,0-0.2,0c-0.1,0-0.1,0-0.2,0c0,0-0.1,0-0.1,0l0-0.2
			c0.1,0,0.2,0,0.2,0c0.1,0,0.1-0.1,0.2-0.1c0,0,0.1-0.1,0.1-0.1c0-0.1,0-0.1,0-0.2c0-0.1,0-0.1-0.1-0.2c0-0.1-0.1-0.1-0.1-0.1
			c-0.1,0-0.1,0-0.2-0.1c-0.1,0-0.2,0-0.2,0c-0.1,0-0.1,0-0.1,0c0,0-0.1,0-0.1,0c0,0.2,0,0.4,0,0.6c0,0.2,0,0.4,0,0.5
			c0,0.2,0,0.5,0,0.7c0,0.2,0,0.3,0,0.4c0,0,0.1,0,0.1,0c0,0,0.1,0,0.1,0c0.1,0,0.3,0,0.4,0c0.1,0,0.2,0,0.3-0.1
			c0.1,0,0.1-0.1,0.1-0.2c0-0.1,0.1-0.1,0.1-0.2c0-0.1,0-0.1,0-0.2C32.5,20.2,32.5,20.1,32.4,20.1z"/>
		<path class="st1" d="M39.6,19.5c-0.1-0.2-0.1-0.4-0.2-0.5l0,0c-0.1,0.1-0.1,0.3-0.2,0.5C39,19.7,39,19.9,38.9,20l0,0h0.8l0,0
			C39.7,19.8,39.6,19.7,39.6,19.5z"/>
		<path class="st1" d="M34.4,19.5c-0.1-0.2-0.1-0.4-0.2-0.5l0,0c-0.1,0.1-0.1,0.3-0.2,0.5c-0.1,0.2-0.1,0.4-0.2,0.5l0,0h0.8l0,0
			C34.6,19.8,34.5,19.7,34.4,19.5z"/>
		<path class="st1" d="M44.9,14.8c-1.2,0.1-2.4,0-3.6-0.3c-0.7-0.2-1.4-0.4-2.1-0.6c-1.1-0.3-2.1-0.6-3.3-0.6
			c-0.6,0-1.1,0.1-1.6,0.5c-0.6,0.5-1.1,0.9-1.7,1.4c-0.8,0.6-1.8,0.9-2.9,1c-1.2,0-2.3-0.3-3.4-0.8c-0.2-0.1-0.4-0.2-0.6-0.3v6.3
			h20.3v-6.6C45.8,14.7,45.3,14.8,44.9,14.8z M28.2,19.2c0,0.2,0,0.3,0,0.4c0,0.1,0,0.3,0,0.4c0,0.1,0,0.2,0,0.3
			c0,0.2,0,0.3-0.1,0.4c0,0.1-0.1,0.2-0.2,0.3c-0.1,0.1-0.2,0.2-0.3,0.2c-0.1,0-0.3,0.1-0.4,0.1c-0.2,0-0.3,0-0.4-0.1
			c-0.1,0-0.2-0.1-0.3-0.2c-0.1-0.1-0.1-0.2-0.2-0.3c0-0.1-0.1-0.2-0.1-0.4c0-0.1,0-0.2,0-0.3c0-0.1,0-0.2,0-0.4c0-0.1,0-0.3,0-0.4
			s0-0.4,0-0.6h0.3c0,0,0,0.1,0,0.3c0,0.2,0,0.4,0,0.7c0,0.1,0,0.2,0,0.3c0,0.1,0,0.2,0,0.3c0,0.2,0.1,0.4,0.2,0.5
			c0.1,0.1,0.3,0.2,0.5,0.2c0.2,0,0.4-0.1,0.5-0.2c0.1-0.1,0.2-0.3,0.2-0.6c0-0.1,0-0.2,0-0.3c0-0.1,0-0.2,0-0.3c0-0.3,0-0.6,0-0.8
			c0-0.2,0-0.3,0-0.3h0.3C28.2,18.8,28.2,19,28.2,19.2z M30.5,21.2c0,0-0.1-0.1-0.3-0.3c-0.2-0.2-0.4-0.5-0.7-0.9l0,0
			c0,0,0.1,0,0.2-0.1c0.1,0,0.1-0.1,0.2-0.1c0,0,0.1-0.1,0.1-0.2c0-0.1,0-0.2,0-0.3c0-0.1,0-0.2-0.1-0.3s-0.1-0.1-0.2-0.2
			c-0.1,0-0.1,0-0.2-0.1c-0.1,0-0.1,0-0.2,0c0,0-0.1,0-0.1,0c0,0,0,0,0,0c0,0.2,0,0.5,0,0.7c0,0.2,0,0.3,0,0.4c0,0.2,0,0.4,0,0.7
			c0,0.3,0,0.5,0,0.6H29c0-0.1,0-0.2,0-0.5c0-0.2,0-0.5,0-0.8c0-0.1,0-0.2,0-0.4c0-0.2,0-0.5,0-1c0,0,0.1,0,0.2,0c0.1,0,0.2,0,0.3,0
			c0.1,0,0.2,0,0.3,0c0.1,0,0.2,0,0.3,0.1c0.1,0.1,0.2,0.1,0.3,0.2c0.1,0.1,0.1,0.2,0.1,0.4c0,0.2-0.1,0.3-0.2,0.5
			c-0.1,0.1-0.2,0.2-0.3,0.3v0c0.2,0.2,0.3,0.4,0.5,0.6c0.2,0.2,0.3,0.3,0.3,0.4L30.5,21.2z M32.8,20.8c-0.1,0.1-0.1,0.2-0.3,0.3
			c-0.1,0.1-0.2,0.1-0.3,0.1c-0.1,0-0.3,0-0.4,0c-0.1,0-0.2,0-0.3,0c-0.1,0-0.2,0-0.2,0c0-0.3,0-0.5,0-0.7c0-0.2,0-0.4,0-0.6
			c0-0.4,0-0.7,0-0.9c0-0.2,0-0.3,0-0.3c0,0,0.1,0,0.2,0c0.1,0,0.2,0,0.3,0c0.1,0,0.2,0,0.3,0c0.1,0,0.2,0,0.3,0.1
			c0.1,0,0.2,0.1,0.2,0.2c0.1,0.1,0.1,0.2,0.1,0.3c0,0.1,0,0.3-0.1,0.4c-0.1,0.1-0.2,0.2-0.3,0.2v0c0.1,0,0.2,0,0.2,0.1
			s0.1,0.1,0.2,0.1c0,0.1,0.1,0.1,0.1,0.2c0,0.1,0,0.2,0,0.3C32.8,20.5,32.8,20.6,32.8,20.8z M35.1,21.2c0,0,0-0.1-0.1-0.3
			c-0.1-0.2-0.2-0.4-0.3-0.7h-1c-0.1,0.3-0.2,0.5-0.3,0.7s-0.1,0.3-0.1,0.3l-0.2-0.1c0-0.1,0.2-0.4,0.4-0.9c0.2-0.5,0.4-1.1,0.7-1.7
			h0.2c0.2,0.6,0.5,1.2,0.7,1.7c0.2,0.5,0.3,0.8,0.3,0.9L35.1,21.2z M37.8,20.7c0,0.2,0,0.3,0,0.3l-0.2,0.1c-0.3-0.5-0.7-1-1-1.4
			c-0.3-0.4-0.5-0.7-0.5-0.7l0,0c0,0.3,0,0.8,0,1.3c0,0.5,0,0.8,0,0.9h-0.3c0,0,0-0.1,0-0.3c0-0.2,0-0.5,0-0.8c0-0.1,0-0.3,0-0.6
			c0-0.2,0-0.5,0-0.7l0.3-0.1c0,0,0.2,0.3,0.5,0.8s0.6,0.9,0.9,1.3l0,0c0-0.2,0-0.5,0-1c0-0.5,0-0.8,0-1.1h0.3c0,0.2,0,0.4,0,0.7
			c0,0.3,0,0.5,0,0.6C37.8,20.2,37.8,20.5,37.8,20.7z M40.2,21.2c0,0,0-0.1-0.1-0.3c-0.1-0.2-0.2-0.4-0.3-0.7h-1
			c-0.1,0.3-0.2,0.5-0.3,0.7c-0.1,0.2-0.1,0.3-0.1,0.3l-0.2-0.1c0-0.1,0.2-0.4,0.4-0.9c0.2-0.5,0.4-1.1,0.7-1.7h0.2
			c0.2,0.6,0.5,1.2,0.7,1.7c0.2,0.5,0.3,0.8,0.3,0.9L40.2,21.2z"/>
	</g>
	<g>
		<path class="st1" d="M22.8,12.8c-0.5-0.4-0.9-0.8-1.4-1.1c-0.6-0.4-1.4-0.6-2.1-0.6c-0.5-0.1-1-0.1-1.5,0.1
			c-0.3,0.1-0.7,0.3-1,0.4c-0.9,0.4-1.9,0.9-2.8,1.4c-0.8,0.4-1.5,1-2.3,1.4c-1.4,0.8-2.9,1.4-4.5,1.9c-0.3,0.1-0.7,0.1-1.1,0.2
			h18.5v-2.2C24,13.8,23.4,13.3,22.8,12.8z"/>
		<path class="st1" d="M4.7,15c0.7-0.1,1.4-0.1,2-0.3c1.4-0.3,2.8-0.8,4.1-1.6c0.8-0.4,1.5-1,2.3-1.4c1.4-0.8,2.8-1.4,4.2-2.1
			c0.5-0.2,1-0.3,1.5-0.3c0.5,0,1,0,1.5,0c0.4,0,0.8,0.1,1.2,0.1c1,0.2,2,0.6,2.8,1.3c0.2,0.1,0.3,0.2,0.5,0.4V5.9H4.3v9.2
			C4.4,15.1,4.5,15.1,4.7,15z"/>
	</g>
	<path class="st1" d="M47.8,11.2v1.2c0.2-0.1,0.4-0.2,0.7-0.2c0.8-0.2,1.6-0.2,2.4,0.1c0.9,0.3,1.9,0.6,2.8,0.9
		c1.9,0.6,3.8,1.1,5.8,1.4c2,0.3,4.1,0.5,6.1,0.5c0.2,0,0.4,0,0.6,0c0.3,0,0.5,0.1,0.7,0.4c0,0.1,0,0.1,0,0.2c-0.3,0.7-0.8,1-1.4,1
		c-0.6,0.1-1.2,0-1.9,0c-1.2-0.1-2.4-0.1-3.5-0.2c-1.9-0.2-3.9-0.5-5.8-1c-1-0.3-1.9-0.6-2.9-1c-0.7-0.3-1.5-0.5-2.3-0.6
		c-0.4-0.1-0.8,0-1.1,0.2c0,0,0,0,0,0v4.9h20.3v-7.7H47.8z"/>
</g>
</svg>
